<?xml version="1.0" encoding="UTF-8" standalone="no"?>
<!-- Created with Inkscape (http://www.inkscape.org/) -->

<svg
   xmlns:dc="http://purl.org/dc/elements/1.1/"
   xmlns:cc="http://creativecommons.org/ns#"
   xmlns:rdf="http://www.w3.org/1999/02/22-rdf-syntax-ns#"
   xmlns:svg="http://www.w3.org/2000/svg"
   xmlns="http://www.w3.org/2000/svg"
   xmlns:sodipodi="http://sodipodi.sourceforge.net/DTD/sodipodi-0.dtd"
   xmlns:inkscape="http://www.inkscape.org/namespaces/inkscape"
   width="24px"
   height="24px"
   viewBox="0 0 24 24"
   version="1.1"
   id="SVGRoot"
   inkscape:version="0.92.4 (5da689c313, 2019-01-14)"
   sodipodi:docname="icons.svg">
  <defs
     id="defs815">
    <inkscape:perspective
       sodipodi:type="inkscape:persp3d"
       inkscape:vp_x="-12.2 : 4.9417478 : 1"
       inkscape:vp_y="0 : 836.0302 : 0"
       inkscape:vp_z="23 : 4.9417478 : 1"
       inkscape:persp3d-origin="5.4 : 1.5976268 : 1"
       id="perspective1373" />
  </defs>
  <sodipodi:namedview
     id="base"
     pagecolor="#ffffff"
     bordercolor="#666666"
     borderopacity="1.0"
     inkscape:pageopacity="0.0"
     inkscape:pageshadow="2"
     inkscape:zoom="21.333333"
     inkscape:cx="8.1362993"
     inkscape:cy="13.769656"
     inkscape:document-units="px"
     inkscape:current-layer="layer1"
     showgrid="true"
     inkscape:window-width="1920"
     inkscape:window-height="1017"
     inkscape:window-x="-8"
     inkscape:window-y="-8"
     inkscape:window-maximized="1"
     inkscape:grid-bbox="true">
    <inkscape:grid
       type="xygrid"
       id="grid1371" />
  </sodipodi:namedview>
  <metadata
     id="metadata818">
    <rdf:RDF>
      <cc:Work
         rdf:about="">
        <dc:format>image/svg+xml</dc:format>
        <dc:type
           rdf:resource="http://purl.org/dc/dcmitype/StillImage" />
        <dc:title></dc:title>
      </cc:Work>
    </rdf:RDF>
  </metadata>
  <g
     inkscape:label="Layer 1"
     inkscape:groupmode="layer"
     id="layer1">
    <g
       sodipodi:type="inkscape:box3d"
       id="g1375"
       style="opacity:0.503;fill:#ffff00;fill-opacity:1;stroke:#ff0000;stroke-width:3.77952766;stroke-miterlimit:4;stroke-dasharray:none;stroke-dashoffset:0;stroke-opacity:1;paint-order:stroke fill markers"
       inkscape:perspectiveID="#perspective1373"
       inkscape:corner0="0.2 : 0.0148 : 0 : 1"
       inkscape:corner7="-0.5 : 0.0015 : 0.25 : 1">
      <path
         sodipodi:type="inkscape:box3dside"
         id="path1377"
         style="fill:#353564;fill-rule:evenodd;stroke:none;stroke-width:4.18518066;stroke-linejoin:round"
         inkscape:box3dsidetype="6"
         d="m 2.4666667,11.533981 v 9.266001 l 3.5402299,-0.300298 v -7.668415 z"
         points="2.4666667,20.799982 6.0068966,20.499684 6.0068966,12.831269 2.4666667,11.533981 " />
      <path
         sodipodi:type="inkscape:box3dside"
         id="path1385"
         style="fill:#afafde;fill-rule:evenodd;stroke:none;stroke-width:4.18518066;stroke-linejoin:round"
         inkscape:box3dsidetype="13"
         d="M 2.4666667,20.799982 23,23.238404 V 21.84502 L 6.0068966,20.499684 Z"
         points="23,23.238404 23,21.84502 6.0068966,20.499684 2.4666667,20.799982 " />
      <path
         sodipodi:type="inkscape:box3dside"
         id="path1383"
         style="fill:#d7d7ff;fill-rule:evenodd;stroke:none;stroke-width:4.18518066;stroke-linejoin:round"
         inkscape:box3dsidetype="14"
         d="M 23,1.0000003 V 23.238404 21.84502 7.0194176 Z"
         points="23,23.238404 23,21.84502 23,7.0194176 23,1.0000003 " />
      <path
         sodipodi:type="inkscape:box3dside"
         id="path1387"
         style="fill:#e9e9ff;fill-rule:evenodd;stroke:none;stroke-width:4.18518066;stroke-linejoin:round"
         inkscape:box3dsidetype="11"
         d="M 6.0068966,12.831269 23,7.0194176 V 21.84502 L 6.0068966,20.499684 Z"
         points="23,7.0194176 23,21.84502 6.0068966,20.499684 6.0068966,12.831269 " />
      <path
         sodipodi:type="inkscape:box3dside"
         id="path1379"
         style="fill:#4d4d9f;fill-rule:evenodd;stroke:none;stroke-width:4.18518066;stroke-linejoin:round"
         inkscape:box3dsidetype="5"
         d="M 2.4666667,11.533981 23,1.0000003 V 7.0194176 L 6.0068966,12.831269 Z"
         points="23,1.0000003 23,7.0194176 6.0068966,12.831269 2.4666667,11.533981 " />
      <path
         sodipodi:type="inkscape:box3dside"
         id="path1381"
         style="fill:#8686bf;fill-rule:evenodd;stroke:none;stroke-width:4.18518066;stroke-linejoin:round"
         inkscape:box3dsidetype="3"
         d="M 2.4666667,11.533981 23,1.0000003 V 23.238404 L 2.4666667,20.799982 Z"
         points="23,1.0000003 23,23.238404 2.4666667,20.799982 2.4666667,11.533981 " />
    </g>
    <g
       sodipodi:type="inkscape:box3d"
       id="g1389"
       style="opacity:0.503;fill:#ffff00;fill-opacity:1;stroke:#ff0000;stroke-width:3.77952766;stroke-miterlimit:4;stroke-dasharray:none;stroke-dashoffset:0;stroke-opacity:1;paint-order:stroke fill markers"
       inkscape:perspectiveID="#perspective1373"
       inkscape:corner0="-0.14285714 : 0.0070000001 : 0 : 1"
       inkscape:corner7="-0.39999999 : 0.0014285714 : 0.25 : 1">
      <path
         sodipodi:type="inkscape:box3dside"
         id="path1391"
         style="fill:#353564;fill-rule:evenodd;stroke:none;stroke-width:4.18518066;stroke-linejoin:round"
         inkscape:box3dsidetype="6"
         d="m 8.3333333,16.132147 v 5.434196 L 11.645161,21 v -4.20712 z"
         points="8.3333333,21.566343 11.645161,21 11.645161,16.79288 8.3333333,16.132147 " />
      <path
         sodipodi:type="inkscape:box3dside"
         id="path1399"
         style="fill:#afafde;fill-rule:evenodd;stroke:none;stroke-width:4.18518066;stroke-linejoin:round"
         inkscape:box3dsidetype="13"
         d="m 8.3333333,21.566343 8.7999997,1.074896 1.72549,-1.05382 L 11.645161,21 Z"
         points="17.133333,22.641239 18.858823,21.587419 11.645161,21 8.3333333,21.566343 " />
      <path
         sodipodi:type="inkscape:box3dside"
         id="path1401"
         style="fill:#e9e9ff;fill-rule:evenodd;stroke:none;stroke-width:4.18518066;stroke-linejoin:round"
         inkscape:box3dsidetype="11"
         d="m 11.645161,16.79288 7.213662,-0.685322 v 5.479861 L 11.645161,21 Z"
         points="18.858823,16.107558 18.858823,21.587419 11.645161,21 11.645161,16.79288 " />
      <path
         sodipodi:type="inkscape:box3dside"
         id="path1393"
         style="fill:#4d4d9f;fill-rule:evenodd;stroke:none;stroke-width:4.18518066;stroke-linejoin:round"
         inkscape:box3dsidetype="5"
         d="m 8.3333333,16.132147 8.7999997,-1.254046 1.72549,1.229457 -7.213662,0.685322 z"
         points="17.133333,14.878101 18.858823,16.107558 11.645161,16.79288 8.3333333,16.132147 " />
      <path
         sodipodi:type="inkscape:box3dside"
         id="path1397"
         style="fill:#d7d7ff;fill-rule:evenodd;stroke:none;stroke-width:4.18518066;stroke-linejoin:round"
         inkscape:box3dsidetype="14"
         d="m 17.133333,14.878101 v 7.763138 l 1.72549,-1.05382 v -5.479861 z"
         points="17.133333,22.641239 18.858823,21.587419 18.858823,16.107558 17.133333,14.878101 " />
      <path
         sodipodi:type="inkscape:box3dside"
         id="path1395"
         style="fill:#8686bf;fill-rule:evenodd;stroke:none;stroke-width:4.18518066;stroke-linejoin:round"
         inkscape:box3dsidetype="3"
         d="m 8.3333333,16.132147 8.7999997,-1.254046 v 7.763138 L 8.3333333,21.566343 Z"
         points="17.133333,14.878101 17.133333,22.641239 8.3333333,21.566343 8.3333333,16.132147 " />
    </g>
    <g
       sodipodi:type="inkscape:box3d"
       id="g1403"
       style="opacity:0.503;fill:#ffff00;fill-opacity:1;stroke:#ff0000;stroke-width:3.77952766;stroke-miterlimit:4;stroke-dasharray:none;stroke-dashoffset:0;stroke-opacity:1;paint-order:stroke fill markers"
       inkscape:perspectiveID="#perspective1373"
       inkscape:corner0="0.33333333 : 0.0093333333 : 0 : 1"
       inkscape:corner7="0 : 0 : 0.25 : 1">
      <path
         sodipodi:type="inkscape:box3dside"
         id="path1405"
         style="fill:#353564;fill-rule:evenodd;stroke:none;stroke-width:4.18518066;stroke-linejoin:round"
         inkscape:box3dsidetype="6"
         d="m 1,15.714132 v 5.852211 l 3.4736842,-0.396014 v -4.928178 z"
         points="1,21.566343 4.4736842,21.170329 4.4736842,16.242151 1,15.714132 " />
      <path
         sodipodi:type="inkscape:box3dside"
         id="path1413"
         style="fill:#afafde;fill-rule:evenodd;stroke:none;stroke-width:4.18518066;stroke-linejoin:round"
         inkscape:box3dsidetype="13"
         d="m 1,21.566343 4.4,0.83603 3.52,-0.668824 -4.4463158,-0.56322 z"
         points="5.4,22.402373 8.92,21.733549 4.4736842,21.170329 1,21.566343 " />
      <path
         sodipodi:type="inkscape:box3dside"
         id="path1415"
         style="fill:#e9e9ff;fill-rule:evenodd;stroke:none;stroke-width:4.18518066;stroke-linejoin:round"
         inkscape:box3dsidetype="11"
         d="M 4.4736842,16.242151 8.92,15.49119 v 6.242359 l -4.4463158,-0.56322 z"
         points="8.92,15.49119 8.92,21.733549 4.4736842,21.170329 4.4736842,16.242151 " />
      <path
         sodipodi:type="inkscape:box3dside"
         id="path1407"
         style="fill:#4d4d9f;fill-rule:evenodd;stroke:none;stroke-width:4.18518066;stroke-linejoin:round"
         inkscape:box3dsidetype="5"
         d="M 1,15.714132 5.4,14.599425 8.92,15.49119 4.4736842,16.242151 Z"
         points="5.4,14.599425 8.92,15.49119 4.4736842,16.242151 1,15.714132 " />
      <path
         sodipodi:type="inkscape:box3dside"
         id="path1411"
         style="fill:#d7d7ff;fill-rule:evenodd;stroke:none;stroke-width:4.18518066;stroke-linejoin:round"
         inkscape:box3dsidetype="14"
         d="m 5.4,14.599425 v 7.802948 L 8.92,21.733549 V 15.49119 Z"
         points="5.4,22.402373 8.92,21.733549 8.92,15.49119 5.4,14.599425 " />
      <path
         sodipodi:type="inkscape:box3dside"
         id="path1409"
         style="fill:#8686bf;fill-rule:evenodd;stroke:none;stroke-width:4.18518066;stroke-linejoin:round"
         inkscape:box3dsidetype="3"
         d="m 1,15.714132 4.4,-1.114707 v 7.802948 L 1,21.566343 Z"
         points="5.4,14.599425 5.4,22.402373 1,21.566343 1,15.714132 " />
    </g>
  </g>
</svg>
